<mxfile host="app.diagrams.net" modified="2023-04-28T07:33:57.060Z" agent="Mozilla/5.0 (Windows NT 10.0; Win64; x64) AppleWebKit/537.36 (KHTML, like Gecko) Chrome/111.0.0.0 Safari/537.36 OPR/97.0.0.0" version="21.2.2" etag="oiI5_hny5a7caZtrWpX7" type="github">
  <diagram name="Page-1" id="kaW7Qjcxtzvso0iOPluT">
    <mxGraphModel>
      <root>
        <mxCell id="0" />
        <mxCell id="1" parent="0" />
      </root>
    </mxGraphModel>
  </diagram>
</mxfile>
